<?xml version="1.0" standalone="no"?>
<!DOCTYPE svg PUBLIC "-//W3C//DTD SVG 20010904//EN"
 "http://www.w3.org/TR/2001/REC-SVG-20010904/DTD/svg10.dtd">
<svg version="1.0" xmlns="http://www.w3.org/2000/svg"
 width="800.000000pt" height="800.000000pt" viewBox="0 0 800.000000 800.000000"
 preserveAspectRatio="xMidYMid meet">
<metadata>
Created by potrace 1.11, written by Peter Selinger 2001-2013
</metadata>
<g transform="translate(0.000000,800.000000) scale(0.100000,-0.100000)"
fill="#000000" stroke="none">
<path d="M3590 7315 c-888 -88 -1619 -502 -1952 -1105 -87 -157 -157 -358
-189 -540 -20 -113 -17 -526 5 -660 57 -352 200 -692 386 -920 121 -148 258
-274 398 -364 113 -72 234 -130 978 -466 1045 -473 1063 -482 1154 -542 229
-152 323 -326 321 -597 -2 -172 -27 -289 -68 -306 -10 -5 -141 -10 -291 -13
-247 -4 -285 -2 -410 18 -205 33 -594 167 -748 258 -27 15 -101 54 -164 87
-63 32 -148 75 -188 97 -40 21 -78 35 -84 32 -6 -4 -8 -3 -5 3 8 12 -69 57
-83 48 -6 -4 -9 -2 -8 3 3 11 -236 172 -255 172 -6 0 -106 -31 -222 -68 l-210
-68 60 -39 c33 -21 65 -38 72 -38 7 0 11 -5 10 -11 -1 -5 28 -28 65 -50 60
-36 65 -42 45 -48 -12 -3 -80 -24 -152 -46 -165 -51 -183 -56 -167 -44 7 5 14
21 16 35 1 15 6 30 9 34 4 3 7 17 7 30 0 14 5 33 11 45 6 11 8 32 4 46 -6 22
-11 10 -31 -67 -13 -51 -21 -98 -18 -102 3 -5 1 -9 -4 -9 -10 0 -31 -68 -71
-230 -86 -357 -143 -584 -166 -659 -14 -46 -24 -85 -22 -87 1 -1 51 -34 111
-74 120 -79 290 -176 464 -265 62 -31 111 -60 108 -63 -3 -2 -13 1 -21 8 -11
9 -19 10 -27 2 -6 -6 -17 -8 -24 -5 -8 3 -14 0 -14 -7 0 -7 -7 -10 -15 -6 -16
6 -84 -10 -170 -39 -67 -23 -94 -38 -133 -73 l-33 -30 24 -26 c25 -26 62 -41
232 -90 150 -43 251 -61 600 -106 324 -42 552 -63 1120 -105 110 -8 227 -17
260 -20 117 -9 463 -25 665 -30 242 -6 811 18 960 40 215 33 341 77 348 123 2
11 10 22 18 24 10 2 3 14 -21 42 -26 28 -53 43 -98 57 -66 21 -161 44 -215 54
-18 3 -41 10 -50 15 -9 5 -50 13 -91 19 -41 5 -78 14 -83 19 -5 5 30 36 84 74
51 37 104 77 118 90 14 13 102 94 196 180 233 215 315 316 427 528 116 220
176 480 200 860 7 107 11 230 9 274 l-4 78 -102 -7 c-141 -9 -200 -22 -441
-98 -398 -124 -1180 -366 -1260 -390 l-50 -14 -2 56 c-3 101 -56 243 -129 342
l-33 46 97 31 c53 17 311 99 572 182 261 84 572 183 690 220 l215 68 163 7
c95 5 162 12 162 17 0 15 -107 229 -128 255 -16 22 -24 23 -187 23 l-170 1
-130 -41 c-71 -23 -278 -90 -460 -150 -181 -59 -518 -170 -747 -245 l-418
-136 -72 34 c-40 19 -113 51 -163 72 -49 21 -124 53 -165 73 -237 111 -216
100 -208 107 14 14 1990 675 2018 675 20 0 51 -25 130 -106 l105 -106 80 1
c44 1 106 8 138 16 32 8 60 15 62 15 14 0 0 23 -41 69 -47 53 -46 52 -104 33
-8 -3 -6 2 5 11 11 8 23 13 27 11 5 -3 8 -1 8 4 0 15 -36 43 -45 35 -4 -5 -5
-2 -1 5 10 17 -13 43 -134 146 -120 103 -175 146 -225 179 -22 15 -62 42 -90
62 -81 58 -310 185 -425 235 -58 26 -419 172 -801 325 -382 153 -724 295 -761
316 -80 47 -166 123 -206 185 -59 88 -69 290 -19 396 53 116 198 211 385 253
140 32 274 46 482 51 207 6 219 5 325 -20 143 -33 323 -92 460 -151 143 -61
447 -221 553 -290 45 -30 82 -51 82 -46 0 4 -14 27 -30 50 l-30 41 22 9 c13 4
38 11 56 14 27 6 32 4 32 -14 0 -11 -7 -36 -15 -56 -24 -56 -16 -63 67 -64 40
0 97 -4 126 -8 43 -6 55 -5 61 8 8 14 105 309 130 396 28 92 163 503 171 520
13 26 130 387 130 400 0 17 -49 42 -226 111 -378 148 -941 317 -1279 383 -413
80 -892 110 -1235 76z m535 -16 c94 -5 235 -17 314 -26 l143 -16 -38 -15 c-47
-18 -433 -179 -744 -309 -124 -52 -319 -135 -435 -183 -355 -148 -902 -378
-1060 -445 -152 -65 -719 -303 -743 -312 -11 -5 -12 -2 -4 13 6 10 34 69 63
129 118 247 312 479 463 556 74 38 288 132 576 254 69 29 240 102 380 163 403
174 420 179 660 191 194 9 243 10 425 0z m1211 -205 c76 -19 235 -67 353 -106
l214 -71 -89 -32 c-49 -18 -235 -91 -414 -162 -179 -72 -563 -226 -855 -343
-291 -117 -593 -238 -670 -270 -122 -50 -152 -58 -230 -64 -117 -9 -294 -40
-374 -66 -132 -42 -265 -133 -324 -223 -31 -47 -41 -55 -75 -59 -21 -3 -347
-129 -724 -280 l-685 -275 -4 51 c-2 28 -3 134 -3 235 1 143 5 185 15 192 15
9 106 47 914 379 297 122 686 281 865 355 179 73 557 229 840 345 283 116 592
243 685 282 246 103 366 147 396 148 14 0 88 -16 165 -36z m648 -548 c-3 -13
-45 -144 -93 -292 l-88 -268 -64 -17 c-35 -9 -180 -61 -323 -116 l-259 -100
-41 21 c-86 45 -285 125 -386 156 -58 18 -114 36 -125 41 -28 11 -87 23 -102
20 -7 -1 -13 1 -13 4 0 8 22 17 350 145 151 60 437 172 635 250 389 154 458
179 493 179 19 1 21 -3 16 -23z m-3074 -1236 c28 -83 180 -229 293 -281 15 -7
27 -15 27 -19 0 -3 -21 -12 -47 -18 -27 -7 -230 -82 -453 -168 -889 -340
-1062 -406 -1065 -402 -2 3 -45 95 -70 153 -7 17 -29 81 -48 143 -32 102 -34
113 -19 121 10 5 80 34 157 64 144 57 1098 430 1125 440 8 3 31 6 51 6 33 1
37 -2 49 -39z m1060 -595 c146 -58 279 -113 297 -121 17 -7 37 -14 45 -15 7
-1 -18 -11 -57 -24 -59 -19 -1396 -503 -1565 -566 -308 -116 -496 -180 -506
-172 -7 4 -36 25 -65 45 -47 32 -123 104 -238 226 -17 19 -29 38 -25 43 3 5
-1 9 -8 9 -38 0 41 36 262 118 135 50 506 189 825 308 615 230 718 266 750
260 11 -2 139 -52 285 -111z m938 -390 c62 -30 152 -78 200 -106 89 -53 215
-139 210 -144 -2 -2 -34 -12 -73 -23 -38 -11 -173 -56 -300 -100 -208 -72
-986 -341 -1565 -541 -147 -51 -230 -75 -240 -70 -13 8 -102 48 -205 94 -16 7
-68 31 -115 53 -47 22 -125 57 -173 77 -58 25 -84 41 -75 46 7 4 123 46 258
94 135 48 308 109 385 137 77 27 183 65 235 83 52 18 120 42 150 53 30 12 138
50 240 86 102 36 275 97 385 136 374 134 510 179 540 180 17 0 81 -25 143 -55z
m892 -560 c11 -13 10 -14 -4 -9 -9 3 -16 10 -16 15 0 13 6 11 20 -6z m93 -22
c-13 -2 -33 -2 -45 0 -13 2 -3 4 22 4 25 0 35 -2 23 -4z m70 0 c-7 -2 -21 -2
-30 0 -10 3 -4 5 12 5 17 0 24 -2 18 -5z m-3528 -1263 c3 -6 -1 -7 -9 -4 -18
7 -21 14 -7 14 6 0 13 -4 16 -10z m-425 -100 c0 -5 -5 -10 -11 -10 -5 0 -7 5
-4 10 3 6 8 10 11 10 2 0 4 -4 4 -10z m4325 -197 c-6 -143 -32 -363 -44 -375
-4 -4 -83 -30 -176 -57 -94 -27 -474 -138 -845 -246 -371 -108 -736 -214 -810
-235 -633 -185 -1169 -340 -1295 -376 -66 -18 -138 -34 -160 -34 -30 0 -36 -3
-25 -10 13 -8 13 -10 -2 -10 -9 0 -25 -3 -35 -6 -17 -5 -17 -5 0 6 20 13 14
30 -11 29 -14 0 -13 -2 3 -9 l20 -9 -20 -1 c-11 -1 -33 -4 -50 -6 -20 -2 -25
0 -16 5 8 5 21 6 30 3 14 -5 14 -4 1 9 -8 9 -35 15 -60 16 -25 0 -98 2 -162 3
-65 1 -118 5 -118 9 0 4 -81 14 -180 21 -99 7 -180 16 -180 20 0 4 -11 10 -25
12 -17 4 -25 1 -25 -9 0 -17 -51 -7 -63 13 -4 7 -13 11 -20 8 -15 -5 -70 20
-61 28 3 3 -12 9 -33 13 -36 7 -37 8 -14 16 14 6 32 7 40 4 8 -3 12 -3 8 1 -4
4 349 115 785 246 1239 372 1113 338 1247 338 292 0 430 41 559 166 56 54 56
54 251 113 1011 306 1457 440 1475 440 17 1 18 -7 11 -136z m-3628 91 c-3 -3
-12 -4 -19 -1 -8 3 -5 6 6 6 11 1 17 -2 13 -5z m-420 -60 c-3 -3 -12 -4 -19
-1 -8 3 -5 6 6 6 11 1 17 -2 13 -5z m456 -201 c-7 -2 -19 -2 -25 0 -7 3 -2 5
12 5 14 0 19 -2 13 -5z m-108 -24 c-2 -3 24 -20 58 -38 34 -18 82 -43 107 -56
50 -27 233 -105 319 -137 117 -43 116 -37 6 -70 -100 -30 -501 -153 -1103
-339 -177 -55 -327 -97 -332 -94 -6 3 -6 14 0 28 5 12 32 121 60 242 28 121
56 223 63 227 7 5 39 17 72 27 33 11 195 62 360 114 165 52 309 97 320 100 27
6 74 3 70 -4z m3535 -593 c-18 -48 -79 -162 -114 -215 -20 -29 -36 -55 -36
-57 0 -8 -47 -61 -107 -122 -35 -35 -63 -66 -63 -70 0 -4 -20 -20 -44 -37 -24
-16 -42 -34 -38 -40 3 -5 2 -7 -3 -3 -4 4 -26 -6 -48 -22 -23 -17 -47 -30 -54
-30 -7 0 -10 -6 -7 -14 4 -11 0 -13 -17 -9 -13 4 -20 2 -16 -3 8 -13 -157 -59
-173 -49 -8 5 -11 4 -7 -2 8 -12 -118 -47 -134 -38 -5 4 -9 1 -9 -4 0 -6 -5
-11 -11 -11 -6 0 -9 6 -6 13 4 10 -2 13 -19 9 -26 -5 -32 -17 -11 -25 6 -3 -8
-3 -33 0 -25 2 -56 9 -70 14 -14 5 -65 11 -115 14 -236 15 -372 27 -390 35
-11 5 -51 9 -90 8 -60 -1 -289 13 -434 27 -24 2 -53 -1 -63 -6 -14 -8 -26 -5
-50 12 l-32 23 30 8 c16 4 38 5 49 2 12 -3 15 -2 8 3 -7 5 216 72 550 167 309
88 785 223 1057 302 272 78 498 142 502 143 4 0 3 -10 -2 -23z m-3283 -582
c-3 -3 -12 -4 -19 -1 -8 3 -5 6 6 6 11 1 17 -2 13 -5z m1073 -33 c-8 -5 -31
-11 -50 -14 -35 -6 -35 -6 5 8 46 15 67 18 45 6z m28 -32 c-11 -7 -10 -9 1 -9
8 0 12 -3 8 -6 -3 -3 -14 -1 -24 5 -11 6 -13 11 -5 11 7 0 10 4 7 10 -3 6 1 7
10 3 13 -5 14 -7 3 -14z m-121 5 c-3 -3 -12 -4 -19 -1 -8 3 -5 6 6 6 11 1 17
-2 13 -5z m40 -10 c-3 -3 -12 -4 -19 -1 -8 3 -5 6 6 6 11 1 17 -2 13 -5z
m1303 -94 c-8 -5 -19 -10 -25 -10 -5 0 -3 5 5 10 8 5 20 10 25 10 6 0 3 -5 -5
-10z"/>
<path d="M3068 883 c7 -3 16 -2 19 1 4 3 -2 6 -13 5 -11 0 -14 -3 -6 -6z"/>
<path d="M5238 703 c7 -3 16 -2 19 1 4 3 -2 6 -13 5 -11 0 -14 -3 -6 -6z"/>
<path d="M6123 3623 c-13 -2 -23 -9 -23 -14 0 -6 -3 -8 -7 -6 -5 3 -33 1 -63
-4 -30 -5 -76 -9 -102 -10 -27 -1 -48 -5 -48 -9 0 -20 50 -50 84 -50 24 0 35
-4 31 -11 -4 -6 -13 -8 -21 -5 -9 3 -11 -1 -8 -12 5 -14 3 -13 -10 2 -9 11
-16 15 -16 9 0 -6 6 -16 14 -23 12 -9 18 -7 33 9 12 14 29 21 55 21 21 0 38 5
38 10 0 7 20 10 50 9 28 -2 50 -7 50 -12 0 -6 2 -8 5 -5 9 9 -7 38 -17 32 -6
-4 -5 3 1 15 14 25 23 28 14 4 -4 -11 -3 -14 5 -9 7 4 13 2 13 -3 1 -6 2 -17
3 -23 0 -7 6 -13 11 -13 6 0 17 -4 25 -10 12 -7 13 -6 5 6 -37 50 -87 109 -93
108 -4 -1 -17 -4 -29 -6z m-140 -80 c-13 -2 -33 -2 -45 0 -13 2 -3 4 22 4 25
0 35 -2 23 -4z"/>
<path d="M5990 3471 c0 -7 -5 -9 -12 -5 -7 5 -8 3 -3 -5 5 -9 10 -10 18 -2 6
6 8 14 4 18 -4 3 -7 1 -7 -6z"/>
<path d="M6273 3455 c0 -8 4 -15 9 -15 4 0 8 4 8 9 0 6 -4 12 -8 15 -5 3 -9
-1 -9 -9z"/>
<path d="M5560 610 c8 -5 20 -10 25 -10 6 0 3 5 -5 10 -8 5 -19 10 -25 10 -5
0 -3 -5 5 -10z"/>
</g>
</svg>
